<?xml version="1.0" encoding="UTF-8"?>
<svg version="1.1" xmlns="http://www.w3.org/2000/svg" width="500" height="500">
<path d="M0 0 C1.63036697 -0.01210762 1.63036697 -0.01210762 3.29367065 -0.02445984 C5.59143514 -0.03823422 7.88921952 -0.0489858 10.18701172 -0.05688477 C12.49046006 -0.06831667 14.7938838 -0.08862577 17.09716797 -0.1184082 C65.52786532 -0.7425331 110.63625676 15.44347283 149.60888672 43.83740234 C150.93168425 44.78975017 152.26731803 45.72446527 153.61376953 46.64306641 C155.29364476 47.7948965 156.92904319 49.01109995 158.5546875 50.23828125 C158.5546875 50.89828125 158.5546875 51.55828125 158.5546875 52.23828125 C159.09867187 52.46644531 159.64265625 52.69460937 160.203125 52.9296875 C163.23817723 54.61862853 165.6534061 56.82441507 168.1796875 59.17578125 C168.69950195 59.656521 169.21931641 60.13726074 169.75488281 60.63256836 C174.97666479 65.52779032 180.08925136 70.63672751 184.5546875 76.23828125 C184.5546875 76.89828125 184.5546875 77.55828125 184.5546875 78.23828125 C185.2146875 78.23828125 185.8746875 78.23828125 186.5546875 78.23828125 C188.29495321 80.34685717 189.90348423 82.45610753 191.4921875 84.67578125 C191.97945313 85.3517334 192.46671875 86.02768555 192.96875 86.72412109 C205.22256617 103.88025126 217.07105766 122.01977885 223.5546875 142.23046875 C224.52380935 145.31250715 224.52380935 145.31250715 225.9921875 148.44921875 C234.67736463 168.33456462 237.03223952 191.75672664 237.5546875 213.23828125 C237.57958252 214.26018555 237.57958252 214.26018555 237.60498047 215.30273438 C237.69770411 219.95036376 237.66473703 224.59162688 237.5546875 229.23828125 C237.52785889 230.38417725 237.52785889 230.38417725 237.50048828 231.55322266 C236.64020282 262.71816254 229.35998603 292.05353935 215.3671875 319.98828125 C214.89740479 320.92623535 214.42762207 321.86418945 213.94360352 322.83056641 C210.85419696 328.90393549 207.58153042 334.82097994 203.9921875 340.61328125 C203.57493408 341.29100586 203.15768066 341.96873047 202.7277832 342.66699219 C201.73008295 344.23069747 200.65038735 345.741611 199.5546875 347.23828125 C198.8946875 347.23828125 198.2346875 347.23828125 197.5546875 347.23828125 C197.47089844 347.7796875 197.38710938 348.32109375 197.30078125 348.87890625 C196.29618031 352.05575948 194.58045817 354.30431628 192.6171875 356.98828125 C191.90691406 357.973125 191.19664062 358.95796875 190.46484375 359.97265625 C189.51931641 361.09414063 189.51931641 361.09414063 188.5546875 362.23828125 C187.8946875 362.23828125 187.2346875 362.23828125 186.5546875 362.23828125 C186.30203125 362.80804688 186.049375 363.3778125 185.7890625 363.96484375 C181.73312821 371.43495057 174.27045758 377.61459442 168.3046875 383.61328125 C167.71461914 384.20802246 167.12455078 384.80276367 166.51660156 385.41552734 C157.66130984 394.23828125 157.66130984 394.23828125 154.5546875 394.23828125 C154.5546875 394.89828125 154.5546875 395.55828125 154.5546875 396.23828125 C153.09375 397.52734375 153.09375 397.52734375 151.1796875 398.86328125 C150.55320312 399.30929687 149.92671875 399.7553125 149.28125 400.21484375 C147.5546875 401.23828125 147.5546875 401.23828125 145.5546875 401.23828125 C145.5546875 401.89828125 145.5546875 402.55828125 145.5546875 403.23828125 C143.5746875 403.89828125 141.5946875 404.55828125 139.5546875 405.23828125 C139.5546875 405.89828125 139.5546875 406.55828125 139.5546875 407.23828125 C130.58928295 414.5876993 119.36927901 419.39115223 108.9921875 424.36328125 C108.11788086 424.78319336 107.24357422 425.20310547 106.34277344 425.63574219 C97.60632662 429.77957617 88.9151347 433.3449042 79.5546875 435.80078125 C78.07521816 436.19678762 76.59605289 436.59393165 75.1171875 436.9921875 C74.41517715 437.1797612 73.71316681 437.3673349 72.98988342 437.56059265 C70.59612597 438.22674937 68.23444671 438.96469888 65.86499023 439.7121582 C50.10459209 444.43904638 33.60732172 444.72427398 17.27954102 444.62939453 C13.99127866 444.6132768 10.70424174 444.62936682 7.41601562 444.6484375 C-9.52802238 444.66611735 -26.03950528 443.2560217 -42.3828125 438.55078125 C-43.28628418 438.29586914 -44.18975586 438.04095703 -45.12060547 437.77832031 C-72.31231017 429.87710287 -97.67274848 417.36605484 -120.08984375 400.05078125 C-121.82650736 398.71444308 -123.62203983 397.45379636 -125.4453125 396.23828125 C-125.4453125 395.57828125 -125.4453125 394.91828125 -125.4453125 394.23828125 C-126.03699219 393.96371094 -126.62867187 393.68914062 -127.23828125 393.40625 C-134.21258086 389.71542596 -139.7153656 383.06537333 -145.2578125 377.55078125 C-145.91628174 376.89698486 -146.57475098 376.24318848 -147.25317383 375.56958008 C-147.8798999 374.94075928 -148.50662598 374.31193848 -149.15234375 373.6640625 C-149.7141333 373.10114502 -150.27592285 372.53822754 -150.85473633 371.95825195 C-155.4453125 366.99422906 -155.4453125 366.99422906 -155.4453125 364.23828125 C-156.1053125 364.23828125 -156.7653125 364.23828125 -157.4453125 364.23828125 C-157.4453125 363.57828125 -157.4453125 362.91828125 -157.4453125 362.23828125 C-158.1053125 362.23828125 -158.7653125 362.23828125 -159.4453125 362.23828125 C-161.07961001 360.14378445 -162.58698484 358.06046034 -164.0703125 355.86328125 C-164.70066406 354.95835937 -164.70066406 354.95835937 -165.34375 354.03515625 C-168.4453125 349.5036526 -168.4453125 349.5036526 -168.4453125 347.23828125 C-169.1053125 347.23828125 -169.7653125 347.23828125 -170.4453125 347.23828125 C-171.72290039 345.52026367 -171.72290039 345.52026367 -173.16796875 343.09375 C-173.70204346 342.19922119 -174.23611816 341.30469238 -174.78637695 340.38305664 C-175.35445068 339.40715576 -175.92252441 338.43125488 -176.5078125 337.42578125 C-177.09199951 336.42474365 -177.67618652 335.42370605 -178.27807617 334.39233398 C-190.27312603 313.57201315 -199.97244687 290.95900186 -204.4453125 267.23828125 C-204.66743408 266.08223389 -204.66743408 266.08223389 -204.89404297 264.90283203 C-214.19867491 213.53204924 -206.84350946 155.10248129 -178.81640625 110.44140625 C-177.39902818 108.16390987 -176.10333826 105.84374495 -174.8203125 103.48828125 C-172.8545226 99.92963266 -170.87336417 96.50359212 -168.4453125 93.23828125 C-167.7853125 93.23828125 -167.1253125 93.23828125 -166.4453125 93.23828125 C-166.36152344 92.68269531 -166.27773437 92.12710938 -166.19140625 91.5546875 C-165.21021399 88.50836808 -163.55288164 86.62764534 -161.5078125 84.17578125 C-159.34874177 81.57000623 -157.3240933 79.05645245 -155.4453125 76.23828125 C-154.7853125 76.23828125 -154.1253125 76.23828125 -153.4453125 76.23828125 C-153.19007813 75.66722656 -152.93484375 75.09617187 -152.671875 74.5078125 C-148.33235778 66.47832363 -139.77831354 58.05450075 -131.4453125 54.23828125 C-131.4453125 53.57828125 -131.4453125 52.91828125 -131.4453125 52.23828125 C-130.7853125 52.23828125 -130.1253125 52.23828125 -129.4453125 52.23828125 C-129.4453125 51.57828125 -129.4453125 50.91828125 -129.4453125 50.23828125 C-127.294267 48.48083131 -125.14070137 46.84900275 -122.8828125 45.23828125 C-122.20822998 44.75206299 -121.53364746 44.26584473 -120.83862305 43.76489258 C-118.71553731 42.24432079 -116.5829336 40.73834044 -114.4453125 39.23828125 C-113.78885742 38.77728027 -113.13240234 38.3162793 -112.45605469 37.84130859 C-104.41727225 32.23944778 -96.3556006 27.36467421 -87.4453125 23.23828125 C-86.30835938 22.6865625 -85.17140625 22.13484375 -84 21.56640625 C-57.6510042 8.84192482 -29.44120538 0.21346016 0 0 Z M-93.4453125 138.23828125 C-93.4453125 138.89828125 -93.4453125 139.55828125 -93.4453125 140.23828125 C-94.00734375 140.47546875 -94.569375 140.71265625 -95.1484375 140.95703125 C-97.96425292 142.52775822 -99.92486666 144.45299589 -102.1953125 146.73828125 C-102.99453125 147.53234375 -103.79375 148.32640625 -104.6171875 149.14453125 C-106.66454859 151.02611587 -106.66454859 151.02611587 -106.4453125 153.23828125 C-107.1053125 153.23828125 -107.7653125 153.23828125 -108.4453125 153.23828125 C-120.4749341 173.65456715 -126.8708047 193.47454952 -127.4453125 217.23828125 C-127.47367187 218.16382813 -127.50203125 219.089375 -127.53125 220.04296875 C-127.57284904 222.78018547 -127.52014039 225.50171854 -127.4453125 228.23828125 C-127.42855469 229.53765625 -127.41179687 230.83703125 -127.39453125 232.17578125 C-126.7279785 259.14086988 -118.07866483 283.67807123 -98.5 302.66015625 C-81.83415485 316.72595906 -62.59933336 319.55237798 -41.4453125 318.23828125 C-28.63204113 316.67260333 -16.38708072 310.33041817 -6.4453125 302.23828125 C-6.4453125 301.57828125 -6.4453125 300.91828125 -6.4453125 300.23828125 C-5.7853125 300.23828125 -5.1253125 300.23828125 -4.4453125 300.23828125 C-4.4453125 299.57828125 -4.4453125 298.91828125 -4.4453125 298.23828125 C-3.7853125 298.23828125 -3.1253125 298.23828125 -2.4453125 298.23828125 C-2.4453125 297.57828125 -2.4453125 296.91828125 -2.4453125 296.23828125 C-1.7853125 296.23828125 -1.1253125 296.23828125 -0.4453125 296.23828125 C20.13409288 271.76094369 23.44481319 238.42341174 21.28125 207.671875 C19.41865524 187.02912038 13.80587803 165.87336838 -0.4453125 150.23828125 C-1.17234375 149.41972656 -1.899375 148.60117188 -2.6484375 147.7578125 C-14.39831493 135.23092705 -30.31802707 126.78121157 -47.66015625 126 C-64.97107223 125.589363 -78.31112358 130.04473876 -93.4453125 138.23828125 Z M30.5546875 129.23828125 C30.5546875 139.46828125 30.5546875 149.69828125 30.5546875 160.23828125 C52.3346875 160.73328125 52.3346875 160.73328125 74.5546875 161.23828125 C74.8846875 211.72828125 75.2146875 262.21828125 75.5546875 314.23828125 C86.4446875 314.23828125 97.3346875 314.23828125 108.5546875 314.23828125 C108.8846875 263.74828125 109.2146875 213.25828125 109.5546875 161.23828125 C132.3246875 160.74328125 132.3246875 160.74328125 155.5546875 160.23828125 C155.5546875 150.00828125 155.5546875 139.77828125 155.5546875 129.23828125 C114.3046875 129.23828125 73.0546875 129.23828125 30.5546875 129.23828125 Z " fill="#080808" transform="translate(235.4453125,27.76171875)"/>
<path d="M0 0 C3.85877955 2.50504377 7.63006601 5.09244449 10.5703125 8.671875 C10.5703125 9.331875 10.5703125 9.991875 10.5703125 10.671875 C11.2303125 10.671875 11.8903125 10.671875 12.5703125 10.671875 C27.84209725 36.07394363 27.58246534 70.98891127 21.79296875 99.5 C18.86688971 110.09918759 12.61756269 121.65833269 3.2578125 127.859375 C2.53980469 128.34792969 1.82179687 128.83648437 1.08203125 129.33984375 C-7.40188514 133.83909023 -18.18194802 134.09623011 -27.4453125 131.984375 C-35.38009322 129.06359682 -41.33206162 124.04760159 -45.4296875 116.671875 C-45.4296875 115.681875 -45.4296875 114.691875 -45.4296875 113.671875 C-46.0896875 113.671875 -46.7496875 113.671875 -47.4296875 113.671875 C-59.41932543 89.43750045 -59.42465672 53.17260736 -51.4296875 27.671875 C-50.26711102 24.23913228 -49.037178 20.92105793 -47.4296875 17.671875 C-46.7696875 17.671875 -46.1096875 17.671875 -45.4296875 17.671875 C-45.35492188 16.95644531 -45.28015625 16.24101562 -45.203125 15.50390625 C-44.22168634 11.91025461 -42.56021215 10.09599173 -40.0546875 7.359375 C-39.26320312 6.47636719 -38.47171875 5.59335938 -37.65625 4.68359375 C-35.4296875 2.671875 -35.4296875 2.671875 -32.4296875 2.671875 C-32.4296875 2.011875 -32.4296875 1.351875 -32.4296875 0.671875 C-31.01367036 0.19079225 -29.59684313 -0.28790641 -28.1796875 -0.765625 C-27.39078125 -1.03246094 -26.601875 -1.29929688 -25.7890625 -1.57421875 C-17.27896566 -4.29350466 -7.99692438 -4.37130915 0 0 Z " fill="#0A0A0A" transform="translate(198.4296875,185.328125)"/>
<path d="M0 0 C2.0625 0.4375 2.0625 0.4375 4 1 C4 1.99 4 2.98 4 4 C1 6 1 6 -1.1875 5.625 C-1.785625 5.41875 -2.38375 5.2125 -3 5 C-1.125 1.125 -1.125 1.125 0 0 Z " fill="#3A3A3A" transform="translate(365,435)"/>
<path d="M0 0 C1.32 0 2.64 0 4 0 C3.01 2.97 2.02 5.94 1 9 C-1 5 -1 5 -1 1 C-0.67 0.67 -0.34 0.34 0 0 Z " fill="#3A3A3A" transform="translate(115,195)"/>
<path d="M0 0 C1.875 0.25 1.875 0.25 4 1 C5.25 3.0625 5.25 3.0625 6 5 C4.35 5.33 2.7 5.66 1 6 C0.67 4.02 0.34 2.04 0 0 Z " fill="#1E1E1E" transform="translate(203,191)"/>
<path d="M0 0 C1.48280196 0.78483659 2.9611498 1.57809334 4.4375 2.375 C5.67306641 3.03628906 5.67306641 3.03628906 6.93359375 3.7109375 C9 5 9 5 10 7 C3.51020408 6.51020408 3.51020408 6.51020408 1.0625 4.0625 C0 2 0 2 0 0 Z " fill="#4B4B4B" transform="translate(370,62)"/>
<path d="M0 0 C1.43088528 2.86177057 0.59991697 4.93375773 0 8 C-0.66 8 -1.32 8 -2 8 C-2.33 8.66 -2.66 9.32 -3 10 C-3.66 10 -4.32 10 -5 10 C-3.66511872 6.40608886 -2.03977277 3.24509304 0 0 Z " fill="#6D6D6D" transform="translate(245,307)"/>
<path d="M0 0 C2.5 0.125 2.5 0.125 5 1 C5.66 2.32 6.32 3.64 7 5 C4.03 4.01 1.06 3.02 -2 2 C-1.34 1.34 -0.68 0.68 0 0 Z " fill="#424242" transform="translate(207,156)"/>
<path d="M0 0 C1.32 1.32 2.64 2.64 4 4 C3.67 4.66 3.34 5.32 3 6 C0.13275314 5.42655063 -0.8614515 5.1385485 -3 3 C-2.01 2.01 -1.02 1.02 0 0 Z " fill="#222222" transform="translate(89,95)"/>
<path d="M0 0 C0.33 0.66 0.66 1.32 1 2 C-0.32 3.32 -1.64 4.64 -3 6 C-4.32 5.34 -5.64 4.68 -7 4 C-4.69 2.68 -2.38 1.36 0 0 Z " fill="#5A5A5A" transform="translate(139,56)"/>
<path d="" fill="#FFFFFF" transform="translate(0,0)"/>
<path d="" fill="#FFFFFF" transform="translate(0,0)"/>
<path d="" fill="#FFFFFF" transform="translate(0,0)"/>
<path d="" fill="#FFFFFF" transform="translate(0,0)"/>
<path d="" fill="#FFFFFF" transform="translate(0,0)"/>
<path d="" fill="#FFFFFF" transform="translate(0,0)"/>
<path d="" fill="#FFFFFF" transform="translate(0,0)"/>
<path d="" fill="#FFFFFF" transform="translate(0,0)"/>
<path d="" fill="#FFFFFF" transform="translate(0,0)"/>
<path d="" fill="#FFFFFF" transform="translate(0,0)"/>
<path d="" fill="#FFFFFF" transform="translate(0,0)"/>
<path d="" fill="#FFFFFF" transform="translate(0,0)"/>
<path d="" fill="#FFFFFF" transform="translate(0,0)"/>
<path d="" fill="#FFFFFF" transform="translate(0,0)"/>
<path d="" fill="#FFFFFF" transform="translate(0,0)"/>
<path d="" fill="#FFFFFF" transform="translate(0,0)"/>
<path d="" fill="#FFFFFF" transform="translate(0,0)"/>
<path d="" fill="#FFFFFF" transform="translate(0,0)"/>
<path d="" fill="#FFFFFF" transform="translate(0,0)"/>
<path d="" fill="#FFFFFF" transform="translate(0,0)"/>
<path d="" fill="#FFFFFF" transform="translate(0,0)"/>
<path d="" fill="#FFFFFF" transform="translate(0,0)"/>
<path d="" fill="#FFFFFF" transform="translate(0,0)"/>
<path d="" fill="#FFFFFF" transform="translate(0,0)"/>
<path d="" fill="#FFFFFF" transform="translate(0,0)"/>
<path d="" fill="#FFFFFF" transform="translate(0,0)"/>
<path d="" fill="#FFFFFF" transform="translate(0,0)"/>
<path d="" fill="#FFFFFF" transform="translate(0,0)"/>
<path d="" fill="#FFFFFF" transform="translate(0,0)"/>
<path d="" fill="#FFFFFF" transform="translate(0,0)"/>
<path d="" fill="#FFFFFF" transform="translate(0,0)"/>
<path d="" fill="#FFFFFF" transform="translate(0,0)"/>
<path d="" fill="#FFFFFF" transform="translate(0,0)"/>
<path d="" fill="#FFFFFF" transform="translate(0,0)"/>
<path d="" fill="#FFFFFF" transform="translate(0,0)"/>
<path d="" fill="#FFFFFF" transform="translate(0,0)"/>
<path d="" fill="#FFFFFF" transform="translate(0,0)"/>
<path d="" fill="#FFFFFF" transform="translate(0,0)"/>
<path d="" fill="#FFFFFF" transform="translate(0,0)"/>
</svg>
